<svg xmlns="http://www.w3.org/2000/svg" viewBox="0 0 180 180" role="img" aria-label="+!2#8--D%L">
  <defs>
    <linearGradient id="bg" x1="0%" y1="0%" x2="100%" y2="100%">
      <stop offset="0%" stop-color="#1a1f2b"/>
      <stop offset="100%" stop-color="#0a0c10"/>
    </linearGradient>
    <linearGradient id="gold" x1="0%" y1="0%" x2="100%" y2="100%">
      <stop offset="0%" stop-color="#e0bc4a"/>
      <stop offset="100%" stop-color="#c9a227"/>
    </linearGradient>
  </defs>
  <rect width="180" height="180" rx="36" fill="url(#bg)"/>
  <rect x="10" y="10" width="160" height="160" rx="30" fill="none" stroke="url(#gold)" stroke-width="5" opacity="0.85"/>
  <path fill="url(#gold)" d="M106 128H74v-9c7.2-1.8 12.3-6.6 14.1-13.2 2.7-10.2-3.3-19.2-13.2-21.3 1.8-3.6 2.7-7.5 2.4-11.7-.6-8.7-7.8-15.6-16.5-15.6-8.7 0-15.9 6.9-16.5 15.6-.3 4.2.6 8.1 2.4 11.7-9.9 2.1-15.9 11.1-13.2 21.3 1.8 6.6 6.9 11.4 14.1 13.2v9H45v6h90v-6z"/>
</svg>
