<svg xmlns="http://www.w3.org/2000/svg" viewBox="0 0 64 64" role="img" aria-label="+!2#8--D%L">
  <defs>
    <linearGradient id="bg" x1="0%" y1="0%" x2="100%" y2="100%">
      <stop offset="0%" stop-color="#1a1f2b"/>
      <stop offset="100%" stop-color="#0a0c10"/>
    </linearGradient>
    <linearGradient id="gold" x1="0%" y1="0%" x2="100%" y2="100%">
      <stop offset="0%" stop-color="#e0bc4a"/>
      <stop offset="100%" stop-color="#c9a227"/>
    </linearGradient>
  </defs>
  <rect width="64" height="64" rx="14" fill="url(#bg)"/>
  <rect x="4" y="4" width="56" height="56" rx="12" fill="none" stroke="url(#gold)" stroke-width="2" opacity="0.85"/>
  <path fill="url(#gold)" d="M38 46h-12v-3.2c4.8-1.2 8.2-4.4 9.4-8.8 1.8-6.8-2.2-12.8-8.8-14.2 1.2-2.4 1.8-5 1.6-7.8-.4-5.8-5.2-10.4-11-10.4-5.8 0-10.6 4.6-11 10.4-.2 2.8.4 5.4 1.6 7.8-6.6 1.4-10.6 7.4-8.8 14.2 1.2 4.4 4.6 7.6 9.4 8.8V46H16v4h32v-4z"/>
  <circle cx="48" cy="16" r="3" fill="#e0bc4a" opacity="0.9"/>
</svg>
